<svg width="32" height="33" viewBox="0 0 32 33" fill="none" xmlns="http://www.w3.org/2000/svg">
<rect x="6" y="4.5" width="20" height="23" fill="#D9F7EA"/>
<path d="M9.33301 3.16602C8.27214 3.16602 7.25473 3.58744 6.50458 4.33759C5.75444 5.08773 5.33301 6.10515 5.33301 7.16602V25.8327C5.33301 26.8935 5.75444 27.911 6.50458 28.6611C7.25473 29.4113 8.27214 29.8327 9.33301 29.8327H22.6663C23.7272 29.8327 24.7446 29.4113 25.4948 28.6611C26.2449 27.911 26.6663 26.8935 26.6663 25.8327V7.16602C26.6663 6.10515 26.2449 5.08773 25.4948 4.33759C24.7446 3.58744 23.7272 3.16602 22.6663 3.16602H9.33301ZM7.99967 7.16602C7.99967 6.81239 8.14015 6.47326 8.3902 6.22321C8.64025 5.97316 8.97939 5.83268 9.33301 5.83268H22.6663C23.02 5.83268 23.3591 5.97316 23.6092 6.22321C23.8592 6.47326 23.9997 6.81239 23.9997 7.16602V25.8327C23.9997 26.1863 23.8592 26.5254 23.6092 26.7755C23.3591 27.0255 23.02 27.166 22.6663 27.166H9.33301C8.97939 27.166 8.64025 27.0255 8.3902 26.7755C8.14015 26.5254 7.99967 26.1863 7.99967 25.8327V7.16602ZM15.9997 17.8327C16.7069 17.8327 17.3852 17.5517 17.8853 17.0516C18.3854 16.5515 18.6663 15.8733 18.6663 15.166C18.6663 14.4588 18.3854 13.7805 17.8853 13.2804C17.3852 12.7803 16.7069 12.4993 15.9997 12.4993C15.2924 12.4993 14.6142 12.7803 14.1141 13.2804C13.614 13.7805 13.333 14.4588 13.333 15.166C13.333 15.8733 13.614 16.5515 14.1141 17.0516C14.6142 17.5517 15.2924 17.8327 15.9997 17.8327ZM11.9997 19.166C11.6461 19.166 11.3069 19.3065 11.0569 19.5565C10.8068 19.8066 10.6663 20.1457 10.6663 20.4993C10.6663 23.166 13.333 24.4993 15.9997 24.4993C18.6663 24.4993 21.333 23.166 21.333 20.4993C21.333 20.1457 21.1925 19.8066 20.9425 19.5565C20.6924 19.3065 20.3533 19.166 19.9997 19.166H11.9997ZM14.6663 7.16602C14.3127 7.16602 13.9736 7.30649 13.7235 7.55654C13.4735 7.80659 13.333 8.14573 13.333 8.49935C13.333 8.85297 13.4735 9.19211 13.7235 9.44216C13.9736 9.69221 14.3127 9.83268 14.6663 9.83268H17.333C17.6866 9.83268 18.0258 9.69221 18.2758 9.44216C18.5259 9.19211 18.6663 8.85297 18.6663 8.49935C18.6663 8.14573 18.5259 7.80659 18.2758 7.55654C18.0258 7.30649 17.6866 7.16602 17.333 7.16602H14.6663Z" fill="#00B686"/>
</svg>
